<svg width="2151" height="1598" viewBox="0 0 2151 1598" fill="none" xmlns="http://www.w3.org/2000/svg">
<g opacity="0.5" filter="url(#filter0_f_75_46)">
<circle cx="1075.24" cy="751.243" r="450.599" transform="rotate(-135 1075.24 751.243)" fill="url(#paint0_linear_75_46)"/>
</g>
<path d="M1072.79 457.136C1095.67 511.86 1076.97 558.305 1076.97 558.305C1076.97 558.305 1030 537.929 1007.11 483.204C984.224 428.48 916.391 404.999 916.391 404.999C916.391 404.999 1049.9 402.412 1072.79 457.136Z" fill="#F7B1BC"/>
<path d="M1140.58 436.091C1163.47 490.815 1076.97 558.305 1076.97 558.305C1076.97 558.305 1095.67 511.86 1072.79 457.136C1049.9 402.412 1135.37 340.348 1135.37 340.348C1135.37 340.348 1117.69 381.367 1140.58 436.091Z" fill="#F693A5"/>
<path fill-rule="evenodd" clip-rule="evenodd" d="M856.954 554.111H1301.16C1332.69 554.111 1362.93 566.635 1385.22 588.928C1407.51 611.221 1420.04 641.457 1420.04 672.984V894.047C1420.04 925.574 1407.51 955.809 1385.22 978.102C1362.93 1000.4 1332.69 1012.92 1301.16 1012.92H856.954C825.427 1012.92 795.191 1000.4 772.898 978.102C750.605 955.809 738.081 925.574 738.081 894.047V672.984C738.081 641.457 750.605 611.221 772.898 588.928C795.191 566.635 825.427 554.111 856.954 554.111ZM1420.04 735.549H1442.98C1452.38 735.549 1461.4 739.284 1468.05 745.933C1474.7 752.582 1478.43 761.6 1478.43 771.003C1478.43 780.405 1474.7 789.423 1468.05 796.072C1461.4 802.721 1452.38 806.456 1442.98 806.456H1420.04V735.549ZM708.884 735.549H738.081C738.204 735.549 738.204 806.456 738.081 806.456H708.884C699.481 806.456 690.464 802.721 683.815 796.072C677.166 789.423 673.431 780.405 673.431 771.003C673.431 761.6 677.166 752.582 683.815 745.933C690.464 739.284 699.481 735.549 708.884 735.549Z" fill="#56A75C"/>
<path d="M1284.48 618.762H873.638C839.084 618.762 811.073 646.773 811.073 681.326V885.705C811.073 920.258 839.084 948.27 873.638 948.27H1284.48C1319.03 948.27 1347.04 920.258 1347.04 885.705V681.326C1347.04 646.773 1319.03 618.762 1284.48 618.762Z" fill="#CFFFD3"/>
<path fill-rule="evenodd" clip-rule="evenodd" d="M978.727 687.201C986.025 687.201 993.159 689.364 999.227 693.418C1005.29 697.472 1010.02 703.235 1012.82 709.977C1015.61 716.718 1016.34 724.137 1014.92 731.295C1013.49 738.452 1009.98 745.026 1004.82 750.187C999.66 755.347 993.086 758.861 985.928 760.285C978.771 761.709 971.352 760.978 964.61 758.186C957.868 755.393 952.106 750.664 948.051 744.597C943.997 738.529 941.833 731.395 941.833 724.098C941.833 714.312 945.72 704.928 952.639 698.009C959.558 691.089 968.942 687.202 978.727 687.201ZM1170.59 687.201C1177.89 687.201 1185.02 689.364 1191.09 693.418C1197.16 697.472 1201.89 703.235 1204.68 709.977C1207.48 716.718 1208.21 724.137 1206.78 731.295C1205.36 738.452 1201.85 745.026 1196.69 750.187C1191.53 755.347 1184.95 758.861 1177.79 760.285C1170.64 761.709 1163.22 760.978 1156.48 758.186C1149.73 755.393 1143.97 750.664 1139.92 744.597C1135.86 738.529 1133.7 731.395 1133.7 724.098C1133.7 714.312 1137.59 704.928 1144.5 698.009C1151.42 691.089 1160.81 687.202 1170.59 687.201ZM1038.39 837.738H1111.38C1116.91 837.738 1122.22 839.935 1126.13 843.847C1130.04 847.758 1132.24 853.062 1132.24 858.593V869.021C1132.24 874.552 1130.04 879.856 1126.13 883.767C1122.22 887.678 1116.91 889.876 1111.38 889.876H1038.39C1032.86 889.876 1027.56 887.678 1023.64 883.767C1019.73 879.856 1017.54 874.552 1017.54 869.021V858.593C1017.54 853.062 1019.73 847.758 1023.64 843.847C1027.56 839.935 1032.86 837.738 1038.39 837.738Z" fill="#56A75C"/>
<rect x="973.733" y="1048.53" width="204.395" height="62.8906" rx="31.4453" fill="#56A75C"/>
<path d="M12.642 1431V1285.55H43.3949V1405.64H105.753V1431H12.642ZM154.901 1431H121.946L172.159 1285.55H211.79L261.932 1431H228.977L192.543 1318.78H191.406L154.901 1431ZM152.841 1373.83H230.682V1397.83H152.841V1373.83ZM279.439 1431V1285.55H336.825C347.81 1285.55 357.185 1287.51 364.95 1291.44C372.763 1295.32 378.705 1300.84 382.777 1307.99C386.896 1315.09 388.956 1323.45 388.956 1333.06C388.956 1342.72 386.873 1351.03 382.706 1357.99C378.539 1364.9 372.502 1370.2 364.595 1373.9C356.735 1377.59 347.218 1379.44 336.044 1379.44H297.621V1354.72H331.072C336.944 1354.72 341.821 1353.92 345.703 1352.31C349.586 1350.7 352.474 1348.28 354.368 1345.06C356.309 1341.84 357.28 1337.84 357.28 1333.06C357.28 1328.23 356.309 1324.16 354.368 1320.84C352.474 1317.53 349.562 1315.02 345.632 1313.32C341.75 1311.56 336.849 1310.69 330.93 1310.69H310.192V1431H279.439ZM357.99 1364.81L394.141 1431H360.192L324.822 1364.81H357.99ZM435.76 1431H402.805L453.018 1285.55H492.649L542.791 1431H509.837L473.402 1318.78H472.266L435.76 1431ZM433.7 1373.83H511.541V1397.83H433.7V1373.83ZM568.413 1285.55L603.569 1396.06H604.918L640.146 1285.55H674.237L624.094 1431H584.464L534.251 1285.55H568.413ZM691.744 1431V1285.55H789.755V1310.9H722.496V1345.56H784.712V1370.91H722.496V1405.64H790.039V1431H691.744ZM814.205 1431V1285.55H844.957V1405.64H907.315V1431H814.205ZM968.43 1310.9V1285.55H1087.89V1310.9H1043.36V1431H1012.96V1310.9H968.43ZM1114.86 1431H1081.91L1132.12 1285.55H1171.75L1221.89 1431H1188.94L1152.5 1318.78H1151.37L1114.86 1431ZM1112.8 1373.83H1190.64V1397.83H1112.8V1373.83ZM1268.24 1285.55L1297.57 1335.12H1298.7L1328.18 1285.55H1362.91L1318.52 1358.27L1363.9 1431H1328.53L1298.7 1381.36H1297.57L1267.74 1431H1232.51L1278.04 1358.27L1233.36 1285.55H1268.24ZM1509.2 1358.27C1509.2 1374.13 1506.19 1387.63 1500.18 1398.76C1494.21 1409.88 1486.07 1418.38 1475.75 1424.25C1465.47 1430.08 1453.92 1432.99 1441.09 1432.99C1428.16 1432.99 1416.56 1430.05 1406.29 1424.18C1396.01 1418.31 1387.89 1409.81 1381.92 1398.68C1375.96 1387.56 1372.98 1374.09 1372.98 1358.27C1372.98 1342.41 1375.96 1328.92 1381.92 1317.79C1387.89 1306.66 1396.01 1298.19 1406.29 1292.36C1416.56 1286.49 1428.16 1283.56 1441.09 1283.56C1453.92 1283.56 1465.47 1286.49 1475.75 1292.36C1486.07 1298.19 1494.21 1306.66 1500.18 1317.79C1506.19 1328.92 1509.2 1342.41 1509.2 1358.27ZM1478.02 1358.27C1478.02 1348 1476.48 1339.33 1473.4 1332.28C1470.37 1325.22 1466.09 1319.87 1460.55 1316.23C1455.01 1312.58 1448.52 1310.76 1441.09 1310.76C1433.65 1310.76 1427.17 1312.58 1421.63 1316.23C1416.09 1319.87 1411.78 1325.22 1408.7 1332.28C1405.67 1339.33 1404.15 1348 1404.15 1358.27C1404.15 1368.55 1405.67 1377.21 1408.7 1384.27C1411.78 1391.32 1416.09 1396.67 1421.63 1400.32C1427.17 1403.96 1433.65 1405.79 1441.09 1405.79C1448.52 1405.79 1455.01 1403.96 1460.55 1400.32C1466.09 1396.67 1470.37 1391.32 1473.4 1384.27C1476.48 1377.21 1478.02 1368.55 1478.02 1358.27ZM1653.64 1285.55V1431H1627.08L1563.8 1339.45H1562.73V1431H1531.98V1285.55H1558.97L1621.75 1377.02H1623.03V1285.55H1653.64ZM1812.71 1358.27C1812.71 1374.13 1809.71 1387.63 1803.69 1398.76C1797.73 1409.88 1789.58 1418.38 1779.26 1424.25C1768.99 1430.08 1757.43 1432.99 1744.6 1432.99C1731.68 1432.99 1720.08 1430.05 1709.8 1424.18C1699.53 1418.31 1691.41 1409.81 1685.44 1398.68C1679.47 1387.56 1676.49 1374.09 1676.49 1358.27C1676.49 1342.41 1679.47 1328.92 1685.44 1317.79C1691.41 1306.66 1699.53 1298.19 1709.8 1292.36C1720.08 1286.49 1731.68 1283.56 1744.6 1283.56C1757.43 1283.56 1768.99 1286.49 1779.26 1292.36C1789.58 1298.19 1797.73 1306.66 1803.69 1317.79C1809.71 1328.92 1812.71 1342.41 1812.71 1358.27ZM1781.53 1358.27C1781.53 1348 1780 1339.33 1776.92 1332.28C1773.89 1325.22 1769.6 1319.87 1764.06 1316.23C1758.52 1312.58 1752.04 1310.76 1744.6 1310.76C1737.17 1310.76 1730.68 1312.58 1725.14 1316.23C1719.6 1319.87 1715.29 1325.22 1712.22 1332.28C1709.19 1339.33 1707.67 1348 1707.67 1358.27C1707.67 1368.55 1709.19 1377.21 1712.22 1384.27C1715.29 1391.32 1719.6 1396.67 1725.14 1400.32C1730.68 1403.96 1737.17 1405.79 1744.6 1405.79C1752.04 1405.79 1758.52 1403.96 1764.06 1400.32C1769.6 1396.67 1773.89 1391.32 1776.92 1384.27C1780 1377.21 1781.53 1368.55 1781.53 1358.27ZM1835.49 1285.55H1873.42L1913.48 1383.27H1915.18L1955.24 1285.55H1993.16V1431H1963.33V1336.33H1962.13L1924.49 1430.29H1904.17L1866.53 1335.97H1865.32V1431H1835.49V1285.55ZM2009.98 1285.55H2044.42L2077.59 1348.19H2079.01L2112.18 1285.55H2146.63L2093.57 1379.58V1431H2063.03V1379.58L2009.98 1285.55Z" fill="#6BB972"/>
<path d="M86.429 1512.5H76.3011C75.7022 1509.59 74.654 1507.03 73.1566 1504.82C71.6864 1502.62 69.8896 1500.77 67.766 1499.27C65.6696 1497.74 63.3419 1496.6 60.7827 1495.84C58.2235 1495.08 55.5554 1494.69 52.7784 1494.69C47.7145 1494.69 43.127 1495.97 39.016 1498.53C34.9322 1501.09 31.6787 1504.86 29.2557 1509.85C26.8598 1514.83 25.6619 1520.94 25.6619 1528.18C25.6619 1535.42 26.8598 1541.54 29.2557 1546.52C31.6787 1551.5 34.9322 1555.27 39.016 1557.83C43.127 1560.39 47.7145 1561.67 52.7784 1561.67C55.5554 1561.67 58.2235 1561.29 60.7827 1560.53C63.3419 1559.76 65.6696 1558.63 67.766 1557.14C69.8896 1555.61 71.6864 1553.75 73.1566 1551.54C74.654 1549.31 75.7022 1546.75 76.3011 1543.86H86.429C85.6667 1548.14 84.2782 1551.96 82.2635 1555.34C80.2488 1558.72 77.7441 1561.59 74.7493 1563.96C71.7545 1566.3 68.3922 1568.08 64.6623 1569.31C60.9596 1570.53 56.9983 1571.14 52.7784 1571.14C45.6454 1571.14 39.3018 1569.4 33.7479 1565.92C28.1939 1562.43 23.8242 1557.48 20.6388 1551.05C17.4535 1544.63 15.8608 1537 15.8608 1528.18C15.8608 1519.36 17.4535 1511.74 20.6388 1505.31C23.8242 1498.89 28.1939 1493.93 33.7479 1490.45C39.3018 1486.96 45.6454 1485.22 52.7784 1485.22C56.9983 1485.22 60.9596 1485.83 64.6623 1487.06C68.3922 1488.28 71.7545 1490.08 74.7493 1492.45C77.7441 1494.79 80.2488 1497.65 82.2635 1501.02C84.2782 1504.37 85.6667 1508.2 86.429 1512.5ZM119.947 1571.47C115.972 1571.47 112.365 1570.72 109.125 1569.22C105.885 1567.7 103.312 1565.51 101.406 1562.65C99.5006 1559.76 98.5477 1556.28 98.5477 1552.19C98.5477 1548.6 99.2555 1545.69 100.671 1543.46C102.087 1541.2 103.979 1539.43 106.348 1538.15C108.716 1536.87 111.33 1535.91 114.189 1535.29C117.075 1534.63 119.974 1534.12 122.887 1533.74C126.699 1533.25 129.789 1532.88 132.157 1532.63C134.553 1532.36 136.296 1531.91 137.385 1531.29C138.501 1530.66 139.059 1529.57 139.059 1528.02V1527.69C139.059 1523.66 137.956 1520.53 135.751 1518.3C133.573 1516.07 130.265 1514.95 125.828 1514.95C121.226 1514.95 117.619 1515.96 115.005 1517.97C112.392 1519.99 110.554 1522.14 109.492 1524.42L100.345 1521.16C101.978 1517.35 104.156 1514.38 106.879 1512.25C109.628 1510.1 112.623 1508.61 115.863 1507.76C119.13 1506.89 122.343 1506.46 125.501 1506.46C127.515 1506.46 129.83 1506.7 132.443 1507.19C135.084 1507.65 137.63 1508.62 140.08 1510.09C142.557 1511.56 144.613 1513.78 146.247 1516.75C147.88 1519.71 148.697 1523.69 148.697 1528.67V1570H139.059V1561.51H138.569C137.916 1562.87 136.827 1564.32 135.302 1565.88C133.777 1567.43 131.749 1568.75 129.217 1569.84C126.685 1570.93 123.595 1571.47 119.947 1571.47ZM121.417 1562.81C125.229 1562.81 128.441 1562.06 131.055 1560.57C133.696 1559.07 135.683 1557.14 137.017 1554.77C138.378 1552.4 139.059 1549.91 139.059 1547.29V1538.47C138.651 1538.96 137.752 1539.41 136.364 1539.82C135.002 1540.2 133.423 1540.54 131.627 1540.84C129.857 1541.11 128.128 1541.36 126.44 1541.58C124.779 1541.77 123.432 1541.93 122.397 1542.07C119.892 1542.39 117.551 1542.92 115.373 1543.66C113.222 1544.37 111.48 1545.44 110.146 1546.89C108.839 1548.3 108.185 1550.23 108.185 1552.68C108.185 1556.03 109.424 1558.57 111.902 1560.28C114.406 1561.97 117.578 1562.81 121.417 1562.81ZM193.568 1507.27V1515.44H161.061V1507.27H193.568ZM170.535 1492.24H180.173V1552.03C180.173 1554.75 180.568 1556.8 181.357 1558.16C182.174 1559.49 183.208 1560.39 184.461 1560.85C185.74 1561.29 187.088 1561.51 188.504 1561.51C189.566 1561.51 190.437 1561.45 191.117 1561.34C191.798 1561.21 192.343 1561.1 192.751 1561.02L194.711 1569.67C194.058 1569.92 193.146 1570.16 191.975 1570.41C190.804 1570.68 189.32 1570.82 187.524 1570.82C184.801 1570.82 182.133 1570.23 179.519 1569.06C176.933 1567.89 174.782 1566.11 173.067 1563.71C171.379 1561.32 170.535 1558.29 170.535 1554.64V1492.24ZM233.691 1571.31C227.647 1571.31 222.433 1569.97 218.05 1567.3C213.694 1564.61 210.332 1560.85 207.963 1556.03C205.622 1551.19 204.451 1545.55 204.451 1539.13C204.451 1532.7 205.622 1527.04 207.963 1522.14C210.332 1517.21 213.626 1513.37 217.846 1510.62C222.093 1507.84 227.048 1506.46 232.711 1506.46C235.978 1506.46 239.204 1507 242.39 1508.09C245.575 1509.18 248.474 1510.95 251.088 1513.4C253.702 1515.82 255.784 1519.03 257.336 1523.04C258.888 1527.04 259.664 1531.97 259.664 1537.82V1541.9H211.312V1533.57H249.863C249.863 1530.03 249.155 1526.87 247.739 1524.1C246.351 1521.32 244.363 1519.13 241.777 1517.52C239.218 1515.92 236.196 1515.11 232.711 1515.11C228.872 1515.11 225.551 1516.07 222.746 1517.97C219.969 1519.85 217.832 1522.3 216.335 1525.32C214.837 1528.35 214.089 1531.58 214.089 1535.04V1540.6C214.089 1545.33 214.906 1549.35 216.539 1552.64C218.2 1555.91 220.5 1558.4 223.441 1560.12C226.381 1561.81 229.798 1562.65 233.691 1562.65C236.223 1562.65 238.51 1562.3 240.552 1561.59C242.621 1560.85 244.404 1559.76 245.902 1558.32C247.399 1556.85 248.556 1555.03 249.373 1552.85L258.684 1555.46C257.704 1558.62 256.057 1561.4 253.743 1563.79C251.428 1566.16 248.57 1568.01 245.167 1569.35C241.763 1570.65 237.938 1571.31 233.691 1571.31ZM299.645 1594.83C294.989 1594.83 290.987 1594.23 287.638 1593.03C284.289 1591.86 281.499 1590.31 279.266 1588.38C277.061 1586.47 275.305 1584.43 273.998 1582.25L281.676 1576.86C282.547 1578 283.65 1579.31 284.984 1580.78C286.318 1582.28 288.142 1583.57 290.456 1584.66C292.797 1585.78 295.86 1586.34 299.645 1586.34C304.708 1586.34 308.888 1585.11 312.182 1582.66C315.476 1580.21 317.123 1576.37 317.123 1571.14V1558.4H316.306C315.599 1559.55 314.591 1560.96 313.284 1562.65C312.005 1564.31 310.154 1565.79 307.73 1567.1C305.335 1568.38 302.095 1569.02 298.011 1569.02C292.947 1569.02 288.4 1567.82 284.371 1565.43C280.369 1563.03 277.197 1559.55 274.856 1554.97C272.542 1550.4 271.385 1544.84 271.385 1538.31C271.385 1531.88 272.514 1526.29 274.774 1521.53C277.034 1516.73 280.178 1513.03 284.208 1510.42C288.237 1507.78 292.893 1506.46 298.174 1506.46C302.258 1506.46 305.498 1507.14 307.894 1508.5C310.317 1509.83 312.168 1511.36 313.448 1513.07C314.755 1514.76 315.762 1516.15 316.47 1517.24H317.45V1507.27H326.761V1571.8C326.761 1577.19 325.536 1581.57 323.086 1584.95C320.663 1588.35 317.395 1590.84 313.284 1592.42C309.201 1594.03 304.654 1594.83 299.645 1594.83ZM299.318 1560.36C303.184 1560.36 306.451 1559.48 309.119 1557.71C311.787 1555.94 313.815 1553.39 315.204 1550.07C316.592 1546.75 317.287 1542.77 317.287 1538.15C317.287 1533.63 316.606 1529.64 315.245 1526.18C313.883 1522.72 311.869 1520.01 309.201 1518.05C306.533 1516.09 303.238 1515.11 299.318 1515.11C295.234 1515.11 291.831 1516.15 289.108 1518.22C286.413 1520.29 284.385 1523.06 283.023 1526.55C281.689 1530.03 281.022 1533.9 281.022 1538.15C281.022 1542.5 281.703 1546.35 283.064 1549.7C284.453 1553.02 286.495 1555.64 289.19 1557.54C291.913 1559.42 295.288 1560.36 299.318 1560.36ZM369.886 1571.31C364.223 1571.31 359.254 1569.96 354.98 1567.26C350.733 1564.57 347.411 1560.8 345.016 1555.95C342.647 1551.11 341.463 1545.44 341.463 1538.96C341.463 1532.43 342.647 1526.73 345.016 1521.85C347.411 1516.98 350.733 1513.19 354.98 1510.5C359.254 1507.8 364.223 1506.46 369.886 1506.46C375.549 1506.46 380.504 1507.8 384.751 1510.5C389.025 1513.19 392.347 1516.98 394.716 1521.85C397.111 1526.73 398.309 1532.43 398.309 1538.96C398.309 1545.44 397.111 1551.11 394.716 1555.95C392.347 1560.8 389.025 1564.57 384.751 1567.26C380.504 1569.96 375.549 1571.31 369.886 1571.31ZM369.886 1562.65C374.188 1562.65 377.727 1561.55 380.504 1559.34C383.281 1557.14 385.336 1554.24 386.67 1550.64C388.005 1547.05 388.672 1543.16 388.672 1538.96C388.672 1534.77 388.005 1530.86 386.67 1527.24C385.336 1523.62 383.281 1520.69 380.504 1518.46C377.727 1516.23 374.188 1515.11 369.886 1515.11C365.584 1515.11 362.045 1516.23 359.268 1518.46C356.491 1520.69 354.436 1523.62 353.102 1527.24C351.768 1530.86 351.1 1534.77 351.1 1538.96C351.1 1543.16 351.768 1547.05 353.102 1550.64C354.436 1554.24 356.491 1557.14 359.268 1559.34C362.045 1561.55 365.584 1562.65 369.886 1562.65ZM413.021 1570V1507.27H422.332V1516.75H422.986C424.129 1513.64 426.198 1511.13 429.193 1509.19C432.188 1507.26 435.564 1506.29 439.321 1506.29C440.029 1506.29 440.914 1506.31 441.975 1506.33C443.037 1506.36 443.84 1506.4 444.385 1506.46V1516.26C444.058 1516.18 443.309 1516.05 442.139 1515.89C440.995 1515.7 439.784 1515.6 438.504 1515.6C435.455 1515.6 432.732 1516.24 430.337 1517.52C427.968 1518.78 426.089 1520.52 424.701 1522.75C423.34 1524.96 422.659 1527.47 422.659 1530.31V1570H413.021ZM455.809 1570V1507.27H465.447V1570H455.809ZM460.71 1496.82C458.831 1496.82 457.211 1496.18 455.85 1494.9C454.516 1493.62 453.849 1492.08 453.849 1490.28C453.849 1488.49 454.516 1486.95 455.85 1485.67C457.211 1484.39 458.831 1483.75 460.71 1483.75C462.588 1483.75 464.195 1484.39 465.529 1485.67C466.89 1486.95 467.571 1488.49 467.571 1490.28C467.571 1492.08 466.89 1493.62 465.529 1494.9C464.195 1496.18 462.588 1496.82 460.71 1496.82ZM509.399 1571.31C503.355 1571.31 498.141 1569.97 493.758 1567.3C489.402 1564.61 486.04 1560.85 483.671 1556.03C481.33 1551.19 480.159 1545.55 480.159 1539.13C480.159 1532.7 481.33 1527.04 483.671 1522.14C486.04 1517.21 489.334 1513.37 493.554 1510.62C497.801 1507.84 502.756 1506.46 508.419 1506.46C511.686 1506.46 514.912 1507 518.098 1508.09C521.283 1509.18 524.182 1510.95 526.796 1513.4C529.41 1515.82 531.492 1519.03 533.044 1523.04C534.596 1527.04 535.372 1531.97 535.372 1537.82V1541.9H487.02V1533.57H525.571C525.571 1530.03 524.863 1526.87 523.447 1524.1C522.059 1521.32 520.071 1519.13 517.485 1517.52C514.926 1515.92 511.904 1515.11 508.419 1515.11C504.58 1515.11 501.259 1516.07 498.454 1517.97C495.677 1519.85 493.54 1522.3 492.043 1525.32C490.545 1528.35 489.797 1531.58 489.797 1535.04V1540.6C489.797 1545.33 490.614 1549.35 492.247 1552.64C493.908 1555.91 496.208 1558.4 499.149 1560.12C502.089 1561.81 505.506 1562.65 509.399 1562.65C511.931 1562.65 514.218 1562.3 516.26 1561.59C518.329 1560.85 520.112 1559.76 521.61 1558.32C523.107 1556.85 524.264 1555.03 525.081 1552.85L534.392 1555.46C533.412 1558.62 531.765 1561.4 529.451 1563.79C527.136 1566.16 524.278 1568.01 520.875 1569.35C517.471 1570.65 513.646 1571.31 509.399 1571.31ZM594.465 1521.32L585.807 1523.77C585.263 1522.33 584.459 1520.93 583.398 1519.56C582.363 1518.18 580.947 1517.03 579.15 1516.13C577.354 1515.24 575.053 1514.79 572.249 1514.79C568.41 1514.79 565.211 1515.67 562.652 1517.44C560.12 1519.18 558.854 1521.4 558.854 1524.1C558.854 1526.49 559.725 1528.39 561.468 1529.77C563.21 1531.16 565.933 1532.32 569.635 1533.25L578.946 1535.53C584.555 1536.89 588.734 1538.98 591.484 1541.78C594.233 1544.56 595.608 1548.14 595.608 1552.52C595.608 1556.12 594.574 1559.33 592.505 1562.16C590.463 1564.99 587.604 1567.22 583.929 1568.86C580.253 1570.49 575.979 1571.31 571.105 1571.31C564.707 1571.31 559.412 1569.92 555.219 1567.14C551.027 1564.36 548.372 1560.31 547.256 1554.97L556.404 1552.68C557.275 1556.06 558.922 1558.59 561.345 1560.28C563.795 1561.97 566.994 1562.81 570.942 1562.81C575.434 1562.81 579.001 1561.86 581.642 1559.95C584.31 1558.02 585.644 1555.71 585.644 1553.01C585.644 1550.83 584.881 1549.01 583.357 1547.54C581.832 1546.04 579.491 1544.93 576.333 1544.19L565.878 1541.74C560.134 1540.38 555.914 1538.27 553.218 1535.41C550.55 1532.52 549.216 1528.92 549.216 1524.59C549.216 1521.05 550.21 1517.92 552.197 1515.2C554.212 1512.47 556.948 1510.34 560.406 1508.78C563.891 1507.23 567.838 1506.46 572.249 1506.46C578.456 1506.46 583.33 1507.82 586.869 1510.54C590.435 1513.26 592.967 1516.86 594.465 1521.32ZM624.491 1558.57L623.838 1562.98C623.375 1566.08 622.667 1569.4 621.714 1572.94C620.788 1576.48 619.822 1579.81 618.814 1582.95C617.807 1586.08 616.977 1588.57 616.323 1590.42H608.972C609.326 1588.68 609.789 1586.38 610.361 1583.52C610.933 1580.66 611.504 1577.46 612.076 1573.92C612.675 1570.41 613.165 1566.81 613.546 1563.14L614.036 1558.57H624.491ZM671.424 1495.35V1486.36H734.151V1495.35H707.852V1570H697.724V1495.35H671.424ZM758.399 1571.47C754.424 1571.47 750.817 1570.72 747.577 1569.22C744.337 1567.7 741.764 1565.51 739.858 1562.65C737.953 1559.76 737 1556.28 737 1552.19C737 1548.6 737.708 1545.69 739.123 1543.46C740.539 1541.2 742.431 1539.43 744.8 1538.15C747.169 1536.87 749.782 1535.91 752.641 1535.29C755.527 1534.63 758.426 1534.12 761.339 1533.74C765.151 1533.25 768.241 1532.88 770.61 1532.63C773.005 1532.36 774.748 1531.91 775.837 1531.29C776.953 1530.66 777.511 1529.57 777.511 1528.02V1527.69C777.511 1523.66 776.409 1520.53 774.203 1518.3C772.025 1516.07 768.717 1514.95 764.28 1514.95C759.679 1514.95 756.071 1515.96 753.458 1517.97C750.844 1519.99 749.006 1522.14 747.944 1524.42L738.797 1521.16C740.43 1517.35 742.608 1514.38 745.331 1512.25C748.081 1510.1 751.075 1508.61 754.315 1507.76C757.582 1506.89 760.795 1506.46 763.953 1506.46C765.968 1506.46 768.282 1506.7 770.895 1507.19C773.536 1507.65 776.082 1508.62 778.532 1510.09C781.01 1511.56 783.065 1513.78 784.699 1516.75C786.332 1519.71 787.149 1523.69 787.149 1528.67V1570H777.511V1561.51H777.021C776.368 1562.87 775.279 1564.32 773.754 1565.88C772.229 1567.43 770.201 1568.75 767.669 1569.84C765.137 1570.93 762.047 1571.47 758.399 1571.47ZM759.869 1562.81C763.681 1562.81 766.893 1562.06 769.507 1560.57C772.148 1559.07 774.135 1557.14 775.469 1554.77C776.831 1552.4 777.511 1549.91 777.511 1547.29V1538.47C777.103 1538.96 776.204 1539.41 774.816 1539.82C773.455 1540.2 771.876 1540.54 770.079 1540.84C768.309 1541.11 766.58 1541.36 764.892 1541.58C763.231 1541.77 761.884 1541.93 760.849 1542.07C758.345 1542.39 756.003 1542.92 753.825 1543.66C751.674 1544.37 749.932 1545.44 748.598 1546.89C747.291 1548.3 746.638 1550.23 746.638 1552.68C746.638 1556.03 747.876 1558.57 750.354 1560.28C752.859 1561.97 756.03 1562.81 759.869 1562.81ZM830.06 1594.83C825.404 1594.83 821.402 1594.23 818.053 1593.03C814.704 1591.86 811.914 1590.31 809.681 1588.38C807.476 1586.47 805.72 1584.43 804.413 1582.25L812.091 1576.86C812.962 1578 814.065 1579.31 815.399 1580.78C816.733 1582.28 818.557 1583.57 820.871 1584.66C823.212 1585.78 826.275 1586.34 830.06 1586.34C835.123 1586.34 839.303 1585.11 842.597 1582.66C845.891 1580.21 847.538 1576.37 847.538 1571.14V1558.4H846.722C846.014 1559.55 845.006 1560.96 843.699 1562.65C842.42 1564.31 840.569 1565.79 838.146 1567.1C835.75 1568.38 832.51 1569.02 828.426 1569.02C823.362 1569.02 818.815 1567.82 814.786 1565.43C810.784 1563.03 807.612 1559.55 805.271 1554.97C802.957 1550.4 801.8 1544.84 801.8 1538.31C801.8 1531.88 802.929 1526.29 805.189 1521.53C807.449 1516.73 810.593 1513.03 814.623 1510.42C818.652 1507.78 823.308 1506.46 828.589 1506.46C832.673 1506.46 835.913 1507.14 838.309 1508.5C840.732 1509.83 842.583 1511.36 843.863 1513.07C845.17 1514.76 846.177 1516.15 846.885 1517.24H847.865V1507.27H857.176V1571.8C857.176 1577.19 855.951 1581.57 853.501 1584.95C851.078 1588.35 847.811 1590.84 843.699 1592.42C839.616 1594.03 835.069 1594.83 830.06 1594.83ZM829.733 1560.36C833.599 1560.36 836.866 1559.48 839.534 1557.71C842.202 1555.94 844.23 1553.39 845.619 1550.07C847.007 1546.75 847.702 1542.77 847.702 1538.15C847.702 1533.63 847.021 1529.64 845.66 1526.18C844.298 1522.72 842.284 1520.01 839.616 1518.05C836.948 1516.09 833.653 1515.11 829.733 1515.11C825.649 1515.11 822.246 1516.15 819.523 1518.22C816.828 1520.29 814.8 1523.06 813.438 1526.55C812.104 1530.03 811.437 1533.9 811.437 1538.15C811.437 1542.5 812.118 1546.35 813.479 1549.7C814.868 1553.02 816.91 1555.64 819.605 1557.54C822.328 1559.42 825.704 1560.36 829.733 1560.36ZM919.25 1521.32L910.592 1523.77C910.048 1522.33 909.245 1520.93 908.183 1519.56C907.148 1518.18 905.733 1517.03 903.936 1516.13C902.139 1515.24 899.838 1514.79 897.034 1514.79C893.195 1514.79 889.996 1515.67 887.437 1517.44C884.905 1519.18 883.639 1521.4 883.639 1524.1C883.639 1526.49 884.51 1528.39 886.253 1529.77C887.995 1531.16 890.718 1532.32 894.42 1533.25L903.731 1535.53C909.34 1536.89 913.519 1538.98 916.269 1541.78C919.018 1544.56 920.393 1548.14 920.393 1552.52C920.393 1556.12 919.359 1559.33 917.29 1562.16C915.248 1564.99 912.389 1567.22 908.714 1568.86C905.038 1570.49 900.764 1571.31 895.891 1571.31C889.493 1571.31 884.197 1569.92 880.005 1567.14C875.812 1564.36 873.157 1560.31 872.041 1554.97L881.189 1552.68C882.06 1556.06 883.707 1558.59 886.13 1560.28C888.581 1561.97 891.78 1562.81 895.727 1562.81C900.219 1562.81 903.786 1561.86 906.427 1559.95C909.095 1558.02 910.429 1555.71 910.429 1553.01C910.429 1550.83 909.667 1549.01 908.142 1547.54C906.617 1546.04 904.276 1544.93 901.118 1544.19L890.663 1541.74C884.919 1540.38 880.699 1538.27 878.003 1535.41C875.335 1532.52 874.001 1528.92 874.001 1524.59C874.001 1521.05 874.995 1517.92 876.983 1515.2C878.997 1512.47 881.733 1510.34 885.191 1508.78C888.676 1507.23 892.623 1506.46 897.034 1506.46C903.241 1506.46 908.115 1507.82 911.654 1510.54C915.221 1513.26 917.753 1516.86 919.25 1521.32ZM949.276 1558.57L948.623 1562.98C948.16 1566.08 947.452 1569.4 946.499 1572.94C945.573 1576.48 944.607 1579.81 943.6 1582.95C942.592 1586.08 941.762 1588.57 941.108 1590.42H933.758C934.112 1588.68 934.574 1586.38 935.146 1583.52C935.718 1580.66 936.29 1577.46 936.861 1573.92C937.46 1570.41 937.95 1566.81 938.331 1563.14L938.822 1558.57H949.276ZM996.209 1495.35V1486.36H1058.94V1495.35H1032.64V1570H1022.51V1495.35H996.209ZM1066.75 1570V1507.27H1076.06V1516.75H1076.71C1077.85 1513.64 1079.92 1511.13 1082.92 1509.19C1085.91 1507.26 1089.29 1506.29 1093.05 1506.29C1093.75 1506.29 1094.64 1506.31 1095.7 1506.33C1096.76 1506.36 1097.57 1506.4 1098.11 1506.46V1516.26C1097.78 1516.18 1097.04 1516.05 1095.86 1515.89C1094.72 1515.7 1093.51 1515.6 1092.23 1515.6C1089.18 1515.6 1086.46 1516.24 1084.06 1517.52C1081.69 1518.78 1079.81 1520.52 1078.43 1522.75C1077.07 1524.96 1076.38 1527.47 1076.38 1530.31V1570H1066.75ZM1133.93 1571.31C1127.88 1571.31 1122.67 1569.97 1118.28 1567.3C1113.93 1564.61 1110.57 1560.85 1108.2 1556.03C1105.86 1551.19 1104.69 1545.55 1104.69 1539.13C1104.69 1532.7 1105.86 1527.04 1108.2 1522.14C1110.57 1517.21 1113.86 1513.37 1118.08 1510.62C1122.33 1507.84 1127.28 1506.46 1132.95 1506.46C1136.21 1506.46 1139.44 1507 1142.62 1508.09C1145.81 1509.18 1148.71 1510.95 1151.32 1513.4C1153.94 1515.82 1156.02 1519.03 1157.57 1523.04C1159.12 1527.04 1159.9 1531.97 1159.9 1537.82V1541.9H1111.55V1533.57H1150.1C1150.1 1530.03 1149.39 1526.87 1147.97 1524.1C1146.59 1521.32 1144.6 1519.13 1142.01 1517.52C1139.45 1515.92 1136.43 1515.11 1132.95 1515.11C1129.11 1515.11 1125.79 1516.07 1122.98 1517.97C1120.2 1519.85 1118.07 1522.3 1116.57 1525.32C1115.07 1528.35 1114.32 1531.58 1114.32 1535.04V1540.6C1114.32 1545.33 1115.14 1549.35 1116.77 1552.64C1118.43 1555.91 1120.73 1558.4 1123.68 1560.12C1126.62 1561.81 1130.03 1562.65 1133.93 1562.65C1136.46 1562.65 1138.74 1562.3 1140.79 1561.59C1142.86 1560.85 1144.64 1559.76 1146.14 1558.32C1147.63 1556.85 1148.79 1555.03 1149.61 1552.85L1158.92 1555.46C1157.94 1558.62 1156.29 1561.4 1153.98 1563.79C1151.66 1566.16 1148.8 1568.01 1145.4 1569.35C1142 1570.65 1138.17 1571.31 1133.93 1571.31ZM1200.86 1571.31C1194.81 1571.31 1189.6 1569.97 1185.22 1567.3C1180.86 1564.61 1177.5 1560.85 1175.13 1556.03C1172.79 1551.19 1171.62 1545.55 1171.62 1539.13C1171.62 1532.7 1172.79 1527.04 1175.13 1522.14C1177.5 1517.21 1180.79 1513.37 1185.01 1510.62C1189.26 1507.84 1194.22 1506.46 1199.88 1506.46C1203.15 1506.46 1206.37 1507 1209.56 1508.09C1212.74 1509.18 1215.64 1510.95 1218.26 1513.4C1220.87 1515.82 1222.95 1519.03 1224.5 1523.04C1226.06 1527.04 1226.83 1531.97 1226.83 1537.82V1541.9H1178.48V1533.57H1217.03C1217.03 1530.03 1216.32 1526.87 1214.91 1524.1C1213.52 1521.32 1211.53 1519.13 1208.94 1517.52C1206.39 1515.92 1203.36 1515.11 1199.88 1515.11C1196.04 1515.11 1192.72 1516.07 1189.91 1517.97C1187.14 1519.85 1185 1522.3 1183.5 1525.32C1182.01 1528.35 1181.26 1531.58 1181.26 1535.04V1540.6C1181.26 1545.33 1182.07 1549.35 1183.71 1552.64C1185.37 1555.91 1187.67 1558.4 1190.61 1560.12C1193.55 1561.81 1196.97 1562.65 1200.86 1562.65C1203.39 1562.65 1205.68 1562.3 1207.72 1561.59C1209.79 1560.85 1211.57 1559.76 1213.07 1558.32C1214.57 1556.85 1215.72 1555.03 1216.54 1552.85L1225.85 1555.46C1224.87 1558.62 1223.22 1561.4 1220.91 1563.79C1218.6 1566.16 1215.74 1568.01 1212.33 1569.35C1208.93 1570.65 1205.11 1571.31 1200.86 1571.31ZM1255.87 1558.57L1255.21 1562.98C1254.75 1566.08 1254.04 1569.4 1253.09 1572.94C1252.17 1576.48 1251.2 1579.81 1250.19 1582.95C1249.18 1586.08 1248.35 1588.57 1247.7 1590.42H1240.35C1240.7 1588.68 1241.17 1586.38 1241.74 1583.52C1242.31 1580.66 1242.88 1577.46 1243.45 1573.92C1244.05 1570.41 1244.54 1566.81 1244.92 1563.14L1245.41 1558.57H1255.87ZM1324.53 1571.47C1320.55 1571.47 1316.94 1570.72 1313.7 1569.22C1310.46 1567.7 1307.89 1565.51 1305.99 1562.65C1304.08 1559.76 1303.13 1556.28 1303.13 1552.19C1303.13 1548.6 1303.84 1545.69 1305.25 1543.46C1306.67 1541.2 1308.56 1539.43 1310.93 1538.15C1313.3 1536.87 1315.91 1535.91 1318.77 1535.29C1321.65 1534.63 1324.55 1534.12 1327.47 1533.74C1331.28 1533.25 1334.37 1532.88 1336.74 1532.63C1339.13 1532.36 1340.88 1531.91 1341.96 1531.29C1343.08 1530.66 1343.64 1529.57 1343.64 1528.02V1527.69C1343.64 1523.66 1342.54 1520.53 1340.33 1518.3C1338.15 1516.07 1334.85 1514.95 1330.41 1514.95C1325.81 1514.95 1322.2 1515.96 1319.59 1517.97C1316.97 1519.99 1315.13 1522.14 1314.07 1524.42L1304.92 1521.16C1306.56 1517.35 1308.74 1514.38 1311.46 1512.25C1314.21 1510.1 1317.2 1508.61 1320.44 1507.76C1323.71 1506.89 1326.92 1506.46 1330.08 1506.46C1332.1 1506.46 1334.41 1506.7 1337.02 1507.19C1339.66 1507.65 1342.21 1508.62 1344.66 1510.09C1347.14 1511.56 1349.19 1513.78 1350.83 1516.75C1352.46 1519.71 1353.28 1523.69 1353.28 1528.67V1570H1343.64V1561.51H1343.15C1342.5 1562.87 1341.41 1564.32 1339.88 1565.88C1338.36 1567.43 1336.33 1568.75 1333.8 1569.84C1331.27 1570.93 1328.18 1571.47 1324.53 1571.47ZM1326 1562.81C1329.81 1562.81 1333.02 1562.06 1335.63 1560.57C1338.28 1559.07 1340.26 1557.14 1341.6 1554.77C1342.96 1552.4 1343.64 1549.91 1343.64 1547.29V1538.47C1343.23 1538.96 1342.33 1539.41 1340.94 1539.82C1339.58 1540.2 1338 1540.54 1336.21 1540.84C1334.44 1541.11 1332.71 1541.36 1331.02 1541.58C1329.36 1541.77 1328.01 1541.93 1326.98 1542.07C1324.47 1542.39 1322.13 1542.92 1319.95 1543.66C1317.8 1544.37 1316.06 1545.44 1314.73 1546.89C1313.42 1548.3 1312.77 1550.23 1312.77 1552.68C1312.77 1556.03 1314 1558.57 1316.48 1560.28C1318.99 1561.97 1322.16 1562.81 1326 1562.81ZM1380.51 1532.27V1570H1370.87V1507.27H1380.18V1517.07H1381C1382.47 1513.89 1384.7 1511.33 1387.69 1509.4C1390.69 1507.44 1394.55 1506.46 1399.29 1506.46C1403.54 1506.46 1407.25 1507.33 1410.44 1509.07C1413.63 1510.78 1416.1 1513.4 1417.87 1516.91C1419.64 1520.4 1420.53 1524.81 1420.53 1530.14V1570H1410.89V1530.8C1410.89 1525.87 1409.61 1522.03 1407.05 1519.28C1404.49 1516.5 1400.98 1515.11 1396.51 1515.11C1393.44 1515.11 1390.69 1515.78 1388.26 1517.11C1385.87 1518.45 1383.98 1520.4 1382.59 1522.95C1381.2 1525.51 1380.51 1528.62 1380.51 1532.27ZM1461.82 1571.31C1456.6 1571.31 1451.98 1569.99 1447.98 1567.35C1443.98 1564.68 1440.85 1560.92 1438.59 1556.07C1436.33 1551.2 1435.2 1545.44 1435.2 1538.8C1435.2 1532.21 1436.33 1526.49 1438.59 1521.65C1440.85 1516.8 1443.99 1513.06 1448.02 1510.42C1452.05 1507.78 1456.71 1506.46 1461.99 1506.46C1466.07 1506.46 1469.3 1507.14 1471.67 1508.5C1474.06 1509.83 1475.89 1511.36 1477.14 1513.07C1478.42 1514.76 1479.41 1516.15 1480.12 1517.24H1480.94V1486.36H1490.57V1570H1481.26V1560.36H1480.12C1479.41 1561.51 1478.4 1562.95 1477.1 1564.69C1475.79 1566.41 1473.93 1567.94 1471.5 1569.31C1469.08 1570.64 1465.85 1571.31 1461.82 1571.31ZM1463.13 1562.65C1467 1562.65 1470.26 1561.64 1472.93 1559.63C1475.6 1557.59 1477.63 1554.77 1479.02 1551.17C1480.41 1547.55 1481.1 1543.37 1481.1 1538.64C1481.1 1533.95 1480.42 1529.86 1479.06 1526.34C1477.7 1522.8 1475.68 1520.06 1473.01 1518.09C1470.35 1516.11 1467.05 1515.11 1463.13 1515.11C1459.05 1515.11 1455.64 1516.16 1452.92 1518.26C1450.23 1520.33 1448.2 1523.15 1446.84 1526.71C1445.5 1530.25 1444.84 1534.23 1444.84 1538.64C1444.84 1543.1 1445.52 1547.16 1446.88 1550.81C1448.27 1554.43 1450.31 1557.31 1453 1559.46C1455.73 1561.59 1459.1 1562.65 1463.13 1562.65ZM1609.54 1486.36V1570H1599.73L1554.16 1504.33H1553.34V1570H1543.21V1486.36H1553.02L1598.75 1552.19H1599.57V1486.36H1609.54ZM1654.79 1571.31C1648.75 1571.31 1643.54 1569.97 1639.15 1567.3C1634.8 1564.61 1631.44 1560.85 1629.07 1556.03C1626.73 1551.19 1625.55 1545.55 1625.55 1539.13C1625.55 1532.7 1626.73 1527.04 1629.07 1522.14C1631.44 1517.21 1634.73 1513.37 1638.95 1510.62C1643.2 1507.84 1648.15 1506.46 1653.81 1506.46C1657.08 1506.46 1660.31 1507 1663.49 1508.09C1666.68 1509.18 1669.58 1510.95 1672.19 1513.4C1674.81 1515.82 1676.89 1519.03 1678.44 1523.04C1679.99 1527.04 1680.77 1531.97 1680.77 1537.82V1541.9H1632.42V1533.57H1670.97C1670.97 1530.03 1670.26 1526.87 1668.84 1524.1C1667.45 1521.32 1665.47 1519.13 1662.88 1517.52C1660.32 1515.92 1657.3 1515.11 1653.81 1515.11C1649.98 1515.11 1646.65 1516.07 1643.85 1517.97C1641.07 1519.85 1638.94 1522.3 1637.44 1525.32C1635.94 1528.35 1635.19 1531.58 1635.19 1535.04V1540.6C1635.19 1545.33 1636.01 1549.35 1637.64 1552.64C1639.3 1555.91 1641.6 1558.4 1644.54 1560.12C1647.48 1561.81 1650.9 1562.65 1654.79 1562.65C1657.33 1562.65 1659.61 1562.3 1661.66 1561.59C1663.72 1560.85 1665.51 1559.76 1667.01 1558.32C1668.5 1556.85 1669.66 1555.03 1670.48 1552.85L1679.79 1555.46C1678.81 1558.62 1677.16 1561.4 1674.85 1563.79C1672.53 1566.16 1669.67 1568.01 1666.27 1569.35C1662.87 1570.65 1659.04 1571.31 1654.79 1571.31ZM1739.86 1521.32L1731.2 1523.77C1730.66 1522.33 1729.85 1520.93 1728.79 1519.56C1727.76 1518.18 1726.34 1517.03 1724.55 1516.13C1722.75 1515.24 1720.45 1514.79 1717.64 1514.79C1713.81 1514.79 1710.61 1515.67 1708.05 1517.44C1705.52 1519.18 1704.25 1521.4 1704.25 1524.1C1704.25 1526.49 1705.12 1528.39 1706.86 1529.77C1708.61 1531.16 1711.33 1532.32 1715.03 1533.25L1724.34 1535.53C1729.95 1536.89 1734.13 1538.98 1736.88 1541.78C1739.63 1544.56 1741 1548.14 1741 1552.52C1741 1556.12 1739.97 1559.33 1737.9 1562.16C1735.86 1564.99 1733 1567.22 1729.32 1568.86C1725.65 1570.49 1721.37 1571.31 1716.5 1571.31C1710.1 1571.31 1704.81 1569.92 1700.61 1567.14C1696.42 1564.36 1693.77 1560.31 1692.65 1554.97L1701.8 1552.68C1702.67 1556.06 1704.32 1558.59 1706.74 1560.28C1709.19 1561.97 1712.39 1562.81 1716.34 1562.81C1720.83 1562.81 1724.4 1561.86 1727.04 1559.95C1729.71 1558.02 1731.04 1555.71 1731.04 1553.01C1731.04 1550.83 1730.28 1549.01 1728.75 1547.54C1727.23 1546.04 1724.89 1544.93 1721.73 1544.19L1711.27 1541.74C1705.53 1540.38 1701.31 1538.27 1698.61 1535.41C1695.95 1532.52 1694.61 1528.92 1694.61 1524.59C1694.61 1521.05 1695.61 1517.92 1697.59 1515.2C1699.61 1512.47 1702.34 1510.34 1705.8 1508.78C1709.29 1507.23 1713.23 1506.46 1717.64 1506.46C1723.85 1506.46 1728.73 1507.82 1732.26 1510.54C1735.83 1513.26 1738.36 1516.86 1739.86 1521.32ZM1782.79 1507.27V1515.44H1750.28V1507.27H1782.79ZM1759.76 1492.24H1769.4V1552.03C1769.4 1554.75 1769.79 1556.8 1770.58 1558.16C1771.4 1559.49 1772.43 1560.39 1773.68 1560.85C1774.96 1561.29 1776.31 1561.51 1777.73 1561.51C1778.79 1561.51 1779.66 1561.45 1780.34 1561.34C1781.02 1561.21 1781.57 1561.1 1781.97 1561.02L1783.93 1569.67C1783.28 1569.92 1782.37 1570.16 1781.2 1570.41C1780.03 1570.68 1778.54 1570.82 1776.75 1570.82C1774.02 1570.82 1771.36 1570.23 1768.74 1569.06C1766.16 1567.89 1764.01 1566.11 1762.29 1563.71C1760.6 1561.32 1759.76 1558.29 1759.76 1554.64V1492.24ZM1822.91 1571.31C1816.87 1571.31 1811.66 1569.97 1807.27 1567.3C1802.92 1564.61 1799.56 1560.85 1797.19 1556.03C1794.85 1551.19 1793.67 1545.55 1793.67 1539.13C1793.67 1532.7 1794.85 1527.04 1797.19 1522.14C1799.56 1517.21 1802.85 1513.37 1807.07 1510.62C1811.32 1507.84 1816.27 1506.46 1821.93 1506.46C1825.2 1506.46 1828.43 1507 1831.61 1508.09C1834.8 1509.18 1837.7 1510.95 1840.31 1513.4C1842.93 1515.82 1845.01 1519.03 1846.56 1523.04C1848.11 1527.04 1848.89 1531.97 1848.89 1537.82V1541.9H1800.54V1533.57H1839.09C1839.09 1530.03 1838.38 1526.87 1836.96 1524.1C1835.57 1521.32 1833.59 1519.13 1831 1517.52C1828.44 1515.92 1825.42 1515.11 1821.93 1515.11C1818.1 1515.11 1814.77 1516.07 1811.97 1517.97C1809.19 1519.85 1807.06 1522.3 1805.56 1525.32C1804.06 1528.35 1803.31 1531.58 1803.31 1535.04V1540.6C1803.31 1545.33 1804.13 1549.35 1805.76 1552.64C1807.42 1555.91 1809.72 1558.4 1812.66 1560.12C1815.6 1561.81 1819.02 1562.65 1822.91 1562.65C1825.45 1562.65 1827.73 1562.3 1829.78 1561.59C1831.84 1560.85 1833.63 1559.76 1835.13 1558.32C1836.62 1556.85 1837.78 1555.03 1838.6 1552.85L1847.91 1555.46C1846.93 1558.62 1845.28 1561.4 1842.97 1563.79C1840.65 1566.16 1837.79 1568.01 1834.39 1569.35C1830.99 1570.65 1827.16 1571.31 1822.91 1571.31ZM1887.23 1571.31C1882.01 1571.31 1877.39 1569.99 1873.39 1567.35C1869.39 1564.68 1866.26 1560.92 1864 1556.07C1861.74 1551.2 1860.61 1545.44 1860.61 1538.8C1860.61 1532.21 1861.74 1526.49 1864 1521.65C1866.26 1516.8 1869.4 1513.06 1873.43 1510.42C1877.46 1507.78 1882.12 1506.46 1887.4 1506.46C1891.48 1506.46 1894.71 1507.14 1897.08 1508.5C1899.47 1509.83 1901.3 1511.36 1902.55 1513.07C1903.83 1514.76 1904.82 1516.15 1905.53 1517.24H1906.35V1486.36H1915.98V1570H1906.67V1560.36H1905.53C1904.82 1561.51 1903.81 1562.95 1902.51 1564.69C1901.2 1566.41 1899.34 1567.94 1896.91 1569.31C1894.49 1570.64 1891.26 1571.31 1887.23 1571.31ZM1888.54 1562.65C1892.41 1562.65 1895.67 1561.64 1898.34 1559.63C1901.01 1557.59 1903.04 1554.77 1904.43 1551.17C1905.82 1547.55 1906.51 1543.37 1906.51 1538.64C1906.51 1533.95 1905.83 1529.86 1904.47 1526.34C1903.11 1522.8 1901.09 1520.06 1898.42 1518.09C1895.76 1516.11 1892.46 1515.11 1888.54 1515.11C1884.46 1515.11 1881.05 1516.16 1878.33 1518.26C1875.64 1520.33 1873.61 1523.15 1872.25 1526.71C1870.91 1530.25 1870.25 1534.23 1870.25 1538.64C1870.25 1543.1 1870.93 1547.16 1872.29 1550.81C1873.68 1554.43 1875.72 1557.31 1878.41 1559.46C1881.14 1561.59 1884.51 1562.65 1888.54 1562.65ZM2014.36 1507.27C2013.87 1503.13 2011.89 1499.92 2008.4 1497.63C2004.92 1495.35 2000.64 1494.2 1995.58 1494.2C1991.88 1494.2 1988.64 1494.8 1985.86 1496C1983.11 1497.2 1980.96 1498.85 1979.41 1500.94C1977.88 1503.04 1977.12 1505.42 1977.12 1508.09C1977.12 1510.32 1977.65 1512.24 1978.71 1513.85C1979.8 1515.43 1981.19 1516.75 1982.88 1517.81C1984.57 1518.84 1986.34 1519.7 1988.19 1520.38C1990.04 1521.04 1991.74 1521.57 1993.29 1521.97L2001.79 1524.26C2003.96 1524.83 2006.39 1525.62 2009.05 1526.63C2011.75 1527.64 2014.32 1529.01 2016.77 1530.75C2019.25 1532.47 2021.29 1534.68 2022.9 1537.37C2024.51 1540.07 2025.31 1543.37 2025.31 1547.29C2025.31 1551.81 2024.12 1555.9 2021.76 1559.55C2019.41 1563.19 2015.98 1566.09 2011.46 1568.24C2006.97 1570.39 2001.51 1571.47 1995.09 1571.47C1989.1 1571.47 1983.91 1570.5 1979.53 1568.57C1975.17 1566.64 1971.74 1563.94 1969.24 1560.48C1966.76 1557.03 1965.36 1553.01 1965.03 1548.44H1975.49C1975.76 1551.6 1976.82 1554.21 1978.67 1556.28C1980.55 1558.32 1982.92 1559.84 1985.78 1560.85C1988.66 1561.83 1991.77 1562.32 1995.09 1562.32C1998.95 1562.32 2002.43 1561.7 2005.5 1560.44C2008.58 1559.16 2011.01 1557.39 2012.81 1555.13C2014.61 1552.85 2015.51 1550.18 2015.51 1547.13C2015.51 1544.35 2014.73 1542.09 2013.18 1540.35C2011.63 1538.61 2009.59 1537.19 2007.05 1536.1C2004.52 1535.02 2001.79 1534.06 1998.85 1533.25L1988.55 1530.31C1982.02 1528.43 1976.85 1525.75 1973.04 1522.26C1969.22 1518.78 1967.32 1514.22 1967.32 1508.58C1967.32 1503.9 1968.58 1499.81 1971.12 1496.33C1973.68 1492.82 1977.11 1490.09 1981.41 1488.16C1985.74 1486.2 1990.57 1485.22 1995.9 1485.22C2001.3 1485.22 2006.09 1486.19 2010.28 1488.12C2014.47 1490.03 2017.79 1492.64 2020.24 1495.96C2022.72 1499.28 2024.03 1503.05 2024.16 1507.27H2014.36ZM2066.95 1571.31C2060.91 1571.31 2055.7 1569.97 2051.31 1567.3C2046.96 1564.61 2043.59 1560.85 2041.22 1556.03C2038.88 1551.19 2037.71 1545.55 2037.71 1539.13C2037.71 1532.7 2038.88 1527.04 2041.22 1522.14C2043.59 1517.21 2046.89 1513.37 2051.11 1510.62C2055.35 1507.84 2060.31 1506.46 2065.97 1506.46C2069.24 1506.46 2072.47 1507 2075.65 1508.09C2078.84 1509.18 2081.74 1510.95 2084.35 1513.4C2086.96 1515.82 2089.05 1519.03 2090.6 1523.04C2092.15 1527.04 2092.93 1531.97 2092.93 1537.82V1541.9H2044.57V1533.57H2083.12C2083.12 1530.03 2082.42 1526.87 2081 1524.1C2079.61 1521.32 2077.63 1519.13 2075.04 1517.52C2072.48 1515.92 2069.46 1515.11 2065.97 1515.11C2062.13 1515.11 2058.81 1516.07 2056.01 1517.97C2053.23 1519.85 2051.09 1522.3 2049.6 1525.32C2048.1 1528.35 2047.35 1531.58 2047.35 1535.04V1540.6C2047.35 1545.33 2048.17 1549.35 2049.8 1552.64C2051.46 1555.91 2053.76 1558.4 2056.7 1560.12C2059.64 1561.81 2063.06 1562.65 2066.95 1562.65C2069.48 1562.65 2071.77 1562.3 2073.81 1561.59C2075.88 1560.85 2077.67 1559.76 2079.16 1558.32C2080.66 1556.85 2081.82 1555.03 2082.63 1552.85L2091.95 1555.46C2090.97 1558.62 2089.32 1561.4 2087 1563.79C2084.69 1566.16 2081.83 1568.01 2078.43 1569.35C2075.03 1570.65 2071.2 1571.31 2066.95 1571.31ZM2134.87 1507.27V1515.44H2102.36V1507.27H2134.87ZM2111.83 1492.24H2121.47V1552.03C2121.47 1554.75 2121.87 1556.8 2122.66 1558.16C2123.47 1559.49 2124.51 1560.39 2125.76 1560.85C2127.04 1561.29 2128.39 1561.51 2129.8 1561.51C2130.86 1561.51 2131.74 1561.45 2132.42 1561.34C2133.1 1561.21 2133.64 1561.1 2134.05 1561.02L2136.01 1569.67C2135.36 1569.92 2134.44 1570.16 2133.27 1570.41C2132.1 1570.68 2130.62 1570.82 2128.82 1570.82C2126.1 1570.82 2123.43 1570.23 2120.82 1569.06C2118.23 1567.89 2116.08 1566.11 2114.37 1563.71C2112.68 1561.32 2111.83 1558.29 2111.83 1554.64V1492.24Z" fill="#F693A5"/>
<defs>
<filter id="filter0_f_75_46" x="324.644" y="0.644043" width="1501.2" height="1501.2" filterUnits="userSpaceOnUse" color-interpolation-filters="sRGB">
<feFlood flood-opacity="0" result="BackgroundImageFix"/>
<feBlend mode="normal" in="SourceGraphic" in2="BackgroundImageFix" result="shape"/>
<feGaussianBlur stdDeviation="150" result="effect1_foregroundBlur_75_46"/>
</filter>
<linearGradient id="paint0_linear_75_46" x1="1525.84" y1="744.248" x2="625.116" y2="729.471" gradientUnits="userSpaceOnUse">
<stop stop-color="#B83CFF"/>
<stop offset="0.5" stop-color="#FFD129"/>
<stop offset="1" stop-color="#7491FF"/>
</linearGradient>
</defs>
</svg>
